# xmcd
#
# Track frame offsets: 
#        150
#        30120
#        59032
#        81977
#        107900
#        132657
#
# Disc length: 2084 seconds
#
# Revision: 1
# Processed by: cddbd v1.5.2PL0 Copyright (c) Steve Scherf et al.
# Submitted via: ExactAudioCopy v0.99pb5
#
DISCID=50082206
DTITLE=Sonny Phillips - My Black Flower
DYEAR=1976
DGENRE=Jazz
TTITLE0=Goin' Home
TTITLE1=Salaam 7
TTITLE2=My Black Flower
TTITLE3=Me and Me Brudder
TTITLE4=You Make Me Feel So Young
TTITLE5=Jalal
EXTD=YEAR: 1976
EXTT0=
EXTT1=
EXTT2=
EXTT3=
EXTT4=
EXTT5=
PLAYORDER=
